<?xml version="1.0" standalone="no"?>
<!DOCTYPE svg PUBLIC "-//W3C//DTD SVG 1.1//EN" "http://www.w3.org/Graphics/SVG/1.1/DTD/svg11.dtd" >
<!--
2013-9-30: Created.
-->
<svg>
<metadata>
Created by iconfont
</metadata>
<defs>

<font id="iconfont" horiz-adv-x="1024" >
  <font-face
    font-family="iconfont"
    font-weight="500"
    font-stretch="normal"
    units-per-em="1024"
    ascent="896"
    descent="-128"
  />
    <missing-glyph />
    
    <glyph glyph-name="tune" unicode="&#59211;" d="M469.333333 447.66208c0 82.474667-66.858667 149.333333-149.333333 149.333333s-149.333333-66.858667-149.333333-149.333333c0-74.63936 54.7584-136.48384 126.293333-147.56352V62.293333c0-11.782827 9.552213-21.333333 21.333333-21.333333s21.333333 9.550507 21.333334 21.333333V299.613867c73.197227 9.61024 129.706667 72.226133 129.706666 148.048213z m-149.333333-106.666667c-58.815147 0-106.666667 47.849813-106.666667 106.666667s47.85152 106.666667 106.666667 106.666667 106.666667-47.849813 106.666667-106.666667-47.85152-106.666667-106.666667-106.666667zM319.679147 640h0.64c11.605333 0 21.01248 9.408853 21.01248 21.01248v43.306667c0 11.605333-9.408853 21.01248-21.01248 21.01248h-0.64c-11.605333 0-21.01248-9.407147-21.01248-21.01248v-43.306667c0-11.603627 9.408853-21.01248 21.01248-21.01248zM853.333333 319.66208c0 82.474667-66.858667 149.333333-149.333333 149.333333s-149.333333-66.858667-149.333333-149.333333c0-74.63936 54.7584-136.48384 126.293333-147.56352V64.853333c0-12.253867 9.9328-22.186667 22.186667-22.186666s22.186667 9.9328 22.186666 22.186666v106.999467c72.36608 10.35264 128 72.579413 128 147.80928z m-149.333333-106.666667c-58.815147 0-106.666667 47.849813-106.666667 106.666667s47.85152 106.666667 106.666667 106.666667 106.666667-47.849813 106.666667-106.666667-47.85152-106.666667-106.666667-106.666667zM703.829333 512h0.341334c11.687253 0 21.162667 9.475413 21.162666 21.162667V704.170667c0 11.687253-9.475413 21.162667-21.162666 21.162666h-0.341334c-11.687253 0-21.162667-9.475413-21.162666-21.162666v-171.008c0-11.687253 9.475413-21.162667 21.162666-21.162667z"  horiz-adv-x="1024" />

    
    <glyph glyph-name="add" unicode="&#59212;" d="M950.857143 457.142857H585.142857V822.857143c0 40.394971-32.747886 73.142857-73.142857 73.142857s-73.142857-32.747886-73.142857-73.142857v-365.714286H73.142857c-40.394971 0-73.142857-32.747886-73.142857-73.142857s32.747886-73.142857 73.142857-73.142857h365.714286v-365.714286c0-40.394971 32.747886-73.142857 73.142857-73.142857s73.142857 32.747886 73.142857 73.142857V310.857143h365.714286c40.394971 0 73.142857 32.747886 73.142857 73.142857s-32.747886 73.142857-73.142857 73.142857z"  horiz-adv-x="1024" />

    
    <glyph glyph-name="book_big" unicode="&#59213;" d="M853.333333 767.146667H597.333333c-47.127893 0-85.333333-42.666667-85.333333-85.333334 0 42.666667-38.20544 85.333333-85.333333 85.333334H170.666667c-47.127893 0-86.186667-37.352107-86.186667-84.48v-512c0-47.127893 39.058773-86.186667 86.186667-86.186667h234.666666c47.127893 0 85.333333-42.666667 85.333334-85.333333h42.666666c0 42.666667 38.20544 85.333333 85.333334 85.333333H853.333333c47.127893 0 84.48 39.058773 84.48 86.186667V682.666667c0 47.127893-37.352107 84.48-84.48 84.48z m-469.333333-554.666667H213.333333c-23.563947 0-42.666667 19.10272-42.666666 42.666667s19.10272 42.666667 42.666666 42.666666h170.666667c23.563947 0 42.666667-19.10272 42.666667-42.666666s-19.10272-42.666667-42.666667-42.666667z m0 170.666667H213.333333c-23.563947 0-42.666667 19.10272-42.666666 42.666666s19.10272 42.666667 42.666666 42.666667h170.666667c23.563947 0 42.666667-19.10272 42.666667-42.666667s-19.10272-42.666667-42.666667-42.666666z m0 170.666666H213.333333c-23.563947 0-42.666667 19.10272-42.666666 42.666667s19.10272 42.666667 42.666666 42.666667h170.666667c23.563947 0 42.666667-19.10272 42.666667-42.666667s-19.10272-42.666667-42.666667-42.666667z m298.666667-341.333333h-42.666667c-23.563947 0-42.666667 19.10272-42.666667 42.666667s19.10272 42.666667 42.666667 42.666666h42.666667c23.563947 0 42.666667-19.10272 42.666666-42.666666s-19.10272-42.666667-42.666666-42.666667z m128 170.666667H640c-23.563947 0-42.666667 19.10272-42.666667 42.666666s19.10272 42.666667 42.666667 42.666667h170.666667c23.563947 0 42.666667-19.10272 42.666666-42.666667s-19.10272-42.666667-42.666666-42.666666z m0 170.666666H640c-23.563947 0-42.666667 19.10272-42.666667 42.666667s19.10272 42.666667 42.666667 42.666667h170.666667c23.563947 0 42.666667-19.10272 42.666666-42.666667s-19.10272-42.666667-42.666666-42.666667z"  horiz-adv-x="1024" />

    
    <glyph glyph-name="bell" unicode="&#59214;" d="M594.384213 747.584853C584.593067 783.919787 551.427413 810.666667 512 810.666667s-72.593067-26.74688-82.384213-63.081814C456.219307 755.464533 483.807573 759.466667 512 759.466667s55.780693-4.002133 82.384213-11.881814zM824.82688 128s-29.72672 44.525227-46.235307 85.333333H704c-11.782827 0-21.333333 9.550507-21.333333 21.333334s9.550507 21.333333 21.333333 21.333333H768V469.333333c0 141.385387-114.614613 256-256 256s-256-114.614613-256-256v-213.333333h320c11.782827 0 21.333333-9.550507 21.333333-21.333333s-9.550507-21.333333-21.333333-21.333334H245.143893c-16.459093-40.808107-46.093653-85.333333-46.093653-85.333333S170.666667 85.333333 213.333333 85.333333h597.333334c42.666667 0 14.160213 42.666667 14.160213 42.666667zM512 0c-23.5264 0-42.666667 19.140267-42.666667 42.666667h-42.666666c0-47.127893 38.20544-85.333333 85.333333-85.333334s85.333333 38.20544 85.333333 85.333334h-42.666666c0-23.5264-19.140267-42.666667-42.666667-42.666667z"  horiz-adv-x="1024" />

    
    <glyph glyph-name="apple" unicode="&#59215;" d="M791.603222 351.902845c-1.119071 129.550773 105.743082 191.845735 110.799017 194.859181-60.210417 88.099426-154.049654 100.198926-187.579733 101.606907-79.742963 8.065724-155.50335-46.990018-195.983738-46.990017-40.482217 0-102.879577 45.823404-169.065688 44.609248-86.984012-1.215984-167.019543-50.584942-211.826274-128.334788-90.337568-156.664478-23.083586-388.793117 64.873213-515.974093 43.007441-62.199877 94.323802-132.125368 161.725898-129.600143 64.922585 2.576424 89.41598 41.985283 167.853361 41.985282 78.334982 0 100.44578-41.985283 169.014488-40.670557 69.685951 1.261698 114.052003 63.461575 156.669963 125.855278 49.370787 72.172776 69.492125 141.999525 70.850737 145.64565-1.506723 0.437023-136.018346 51.994753-137.331244 207.008052M662.5809 732.436412C698.398491 775.780306 722.500578 836.036437 715.842836 896c-51.512016-2.09003-113.858177-34.307211-150.888096-77.651105-33.142426-38.339159-62.152335-99.666819-54.280437-158.463768 57.390797-4.373886 116.191404 29.302476 151.906597 72.551285"  horiz-adv-x="1024" />

    
    <glyph glyph-name="clone" unicode="&#59216;" d="M987.428571 896h-731.428571c-20.1984 0-36.571429-16.373029-36.571429-36.571429v-182.857142H36.571429c-20.1984 0-36.571429-16.373029-36.571429-36.571429v-731.428571c0-20.1984 16.373029-36.571429 36.571429-36.571429h731.428571c20.1984 0 36.571429 16.373029 36.571429 36.571429v182.857142h182.857142c20.1984 0 36.571429 16.373029 36.571429 36.571429V859.428571c0 20.1984-16.373029 36.571429-36.571429 36.571429z m-256-950.857143h-658.285714v658.285714h146.285714v-475.428571c0-20.1984 16.373029-36.571429 36.571429-36.571429h475.428571v-146.285714z m0 219.428572h-438.857142v438.857142h438.857142v-438.857142z m219.428572 0h-146.285714v475.428571c0 20.1984-16.373029 36.571429-36.571429 36.571429h-475.428571v146.285714h658.285714v-658.285714z"  horiz-adv-x="1024" />

    
    <glyph glyph-name="code" unicode="&#59217;" d="M512 896c-282.770286 0-512-229.229714-512-512s229.229714-512 512-512 512 229.229714 512 512S794.770286 896 512 896z m-167.616-799.557486a36.419657 36.419657 0 0 0-18.477714-5.035885c-12.547657 0-24.764343 6.462171-31.573943 18.066285-49.002057 83.490743-74.903771 179.053714-74.903772 276.355657 0 95.698286 25.120914 189.902629 72.645486 272.426058 10.080914 17.503086 32.444343 23.519086 49.941943 13.441828 17.503086-10.080914 23.520914-32.440686 13.441829-49.941943C314.3168 550.315886 292.571429 468.734171 292.571429 385.828571c0-84.298971 22.421943-167.056457 64.841142-239.3344 10.223543-17.417143 4.3904-39.826286-13.028571-50.051657z m385.289143 13.037715c-6.811429-11.604114-19.028114-18.066286-31.575772-18.066286-6.290286 0-12.661029 1.623771-18.475885 5.035886-17.418971 10.225371-23.253943 32.632686-13.0304 50.051657C709.008457 218.775771 731.428571 301.531429 731.428571 385.828571c0 82.901943-21.745371 164.481829-62.882742 235.918629-10.079086 17.503086-4.061257 39.862857 13.443657 49.941943 17.503086 10.080914 39.861029 4.061257 49.941943-13.441829 47.522743-82.523429 72.64-176.724114 72.64-272.418743 0-97.301943-25.899886-192.861257-74.898286-276.348342z"  horiz-adv-x="1024" />

    
    <glyph glyph-name="code1" unicode="&#59218;" d="M512 896C229.229714 896 0 666.770286 0 384s229.229714-512 512-512 512 229.229714 512 512S794.770286 896 512 896zM327.266743 176.135314c6.3872-19.1616-3.968-39.872-23.1296-46.2592a36.558629 36.558629 0 0 0-11.5712-1.887085c-15.312457 0-29.5808 9.691429-34.689829 25.018514l-73.142857 219.428571a36.551314 36.551314 0 0 0 0 23.127772l73.142857 219.428571c6.3872 19.1616 27.093943 29.5168 46.2592 23.1296 19.1616-6.3872 29.5168-27.0976 23.1296-46.2592L257.978514 384l69.288229-207.864686z m292.571428 415.729372l-146.285714-438.857143c-5.1072-15.325257-19.377371-25.018514-34.689828-25.018514-3.834514 0-7.733029 0.608914-11.5712 1.887085-19.1616 6.3872-29.5168 27.0976-23.1296 46.2592l146.285714 438.857143c6.385371 19.1616 27.103086 29.518629 46.2592 23.1296 19.163429-6.3872 29.518629-27.0976 23.131428-46.257371z m219.514515-219.168915l-71.314286-219.428571c-5.021257-15.451429-19.359086-25.278171-34.773943-25.278171a36.516571 36.516571 0 0 0-11.311543 1.801142c-19.209143 6.242743-29.719771 26.874514-23.477028 46.083658l67.593143 207.979885-69.335772 208.009143c-6.3872 19.1616 3.968 39.872 23.1296 46.2592 19.157943 6.383543 39.872-3.966171 46.2592-23.1296l73.142857-219.428571a36.553143 36.553143 0 0 0 0.087772-22.868115z"  horiz-adv-x="1024" />

    
    <glyph glyph-name="android" unicode="&#59219;" d="M643.446622 806.005189l53.538648 77.611747a7.323415 7.323415 0 0 1-1.868797 10.168668l-1.334855 0.925255a7.332558 7.332558 0 0 1-10.174153-1.872453l-55.076473-79.835286C592.566713 828.598978 552.431471 837.302962 510.087318 837.302962c-40.1773 0-78.38706-7.848215-112.917742-21.972075L344.547042 891.609608a7.327073 7.327073 0 0 1-10.174153 1.868797l-1.334855-0.914285a7.345358 7.345358 0 0 1-1.87794-10.179639l50.885395-73.757125c-80.009-38.226217-137.508326-111.114773-149.214819-197.181819h554.513295c-11.432208 84.139735-66.662281 155.695265-143.897343 194.559652z m-250.113382-111.176944c-15.259401 0-27.633322 12.372092-27.633322 27.633322s12.372092 27.627836 27.633322 27.627836c15.253916 0 27.626008-12.366606 27.626008-27.627836 0.001829-15.26123-12.372092-27.633322-27.626008-27.633322z m238.516603 0c-15.259401 0-27.633322 12.372092-27.633322 27.633322s12.372092 27.627836 27.633322 27.627836c15.259401 0 27.626008-12.366606 27.626008-27.627836s-12.368435-27.633322-27.626008-27.633322zM126.892573 571.246294h12.245921c30.321317 0 55.122187-31.749429 55.122188-70.557131v-226.373081c0-38.827816-24.802699-70.566274-55.122188-70.566274h-12.245921c-30.326803 0-55.127673 31.738458-55.127673 70.566274V500.690992c0 38.805874 24.802699 70.555303 55.127673 70.555302zM884.865163 569.902297h12.251406c30.315832 0 55.11853-31.743943 55.118531-70.557132v-226.378567c0-38.811359-24.802699-70.566274-55.118531-70.566274h-12.251406c-30.321317 0-55.127673 31.754915-55.127673 70.566274V499.345165c0 38.813188 24.804527 70.557131 55.127673 70.557132zM462.60306 71.648558V-55.952586c0-38.791245-24.797213-70.544331-55.122188-70.544331h-12.251406c-30.319489 0-55.11853 31.753086-55.11853 70.544331v127.599315H289.408397c-31.012516 0-56.378414 25.367726-56.378413 56.389385V574.720574h558.545288v-446.682631c0-31.021659-25.367726-56.389385-56.378413-56.389385H688.694542v-129.084113c0-38.807702-24.806356-70.560788-55.122188-70.560788h-12.251406c-30.321317 0-55.11853 31.754915-55.118531 70.560788v129.084113h-103.599357z"  horiz-adv-x="1024" />

    
    <glyph glyph-name="code2" unicode="&#59220;" d="M599.488549 821.436343c-39.610514 7.9232-78.144-17.7664-86.0672-57.376914l-146.285715-731.428572c-7.9232-39.610514 17.7664-78.144 57.376915-86.0672 4.842057-0.967314 9.665829-1.4336 14.421942-1.4336 34.1504 0 64.6912 24.043886 71.645258 58.812343l146.285714 731.428571c7.9232 39.610514-17.7664 78.144-57.376914 86.065372zM246.592549 817.6256c-37.505829 15.003429-80.073143-3.240229-95.076572-40.747886l-146.285714-365.714285a73.152 73.152 0 0 1 0-54.328686l146.285714-365.714286c11.439543-28.600686 38.904686-45.997714 67.935086-45.997714 9.040457 0 18.234514 1.687771 27.141486 5.251657 37.505829 15.0016 55.749486 57.568914 40.747885 95.074743L151.92192 384 287.342263 722.550857c15.0016 37.505829-3.242057 80.073143-40.749714 95.074743zM1018.767177 411.163429l-146.285714 365.714285c-15.003429 37.505829-57.567086 55.745829-95.074743 40.747886-37.507657-15.003429-55.749486-57.568914-40.746057-95.076571L872.081006 384l-135.420343-338.550857c-15.003429-37.505829 3.2384-80.073143 40.746057-95.074743a72.919771 72.919771 0 0 1 27.141486-5.251657c29.026743 0.003657 56.495543 17.402514 67.933257 45.997714l146.285714 365.714286a73.115429 73.115429 0 0 1 0 54.328686z"  horiz-adv-x="1024" />

    
    <glyph glyph-name="code3" unicode="&#59221;" d="M178.002286 233.883429v-169.2032c0-55.992686 7.689143-96.305371 23.067428-120.938058 15.378286-24.594286 42.177829-40.085943 80.418743-46.456685 12.213029-1.488457 18.336914-5.220571 18.336914-11.214629 0-8.594286-12.514743-12.909714-37.5424-12.909714h-37.5424c-41.3312 0-72.727771 14.756571-94.175085 44.251428-21.447314 29.513143-32.171886 72.766171-32.171886 129.795658V218.861714c0 40.387657-4.4672 71.277714-13.361371 92.668343-8.896 21.372343-25.6128 41.576229-50.130286 60.591543-6.727314 5.1456-10.082743 9.706057-10.082743 13.663086 0 3.543771 3.3536 7.8976 10.082743 13.023085 24.519314 18.922057 41.236114 39.049143 50.130286 60.3648 8.896 21.295543 13.361371 51.883886 13.361371 91.744915V722.5728c0 56.821029 10.724571 99.924114 32.171886 129.323886S183.4112 895.996343 224.740571 895.996343h37.5424c25.424457 0 37.937371-4.335543 37.5424-12.986514-0.394971-6.784-7.689143-11.287771-21.880685-13.549715-38.634057-7.124114-64.963657-22.257371-78.948572-45.4016-14.0032-23.1424-20.993829-63.003429-20.993828-119.581257v-167.959771c0-61.326629-15.945143-104.842971-47.831772-130.549029l-11.947885-9.499428c-5.994057-4.750629-8.970971-8.310857-8.970972-10.686172 0-2.788571 2.978743-6.559086 8.970972-11.328l11.947885-9.517714c31.888457-25.418971 47.831771-69.105371 47.831772-131.053714zM510.303086 535.365486c6.257371 0 13.6832-7.444114 22.314057-22.314057 5.860571-9.781029 16.0384-19.562057 30.513371-29.343086 15.264914-10.9696 22.897371-19.958857 22.897372-27.008 0-5.880686-7.237486-13.513143-21.710629-22.897372-14.098286-9.009371-24.480914-18.978743-31.114971-29.928228l-8.215772-12.909714c-3.920457-6.670629-9.6128-9.987657-17.0368-9.987658-6.257371 0-14.474971 7.237486-24.650971 21.710629-9.404343 13.6832-19.770514 24.067657-31.114972 31.114971-13.701486 8.594286-20.542171 16.621714-20.542171 24.067658 0 6.652343 6.445714 13.701486 19.373714 21.127314 12.909714 7.425829 24.650971 19.185371 35.223772 35.243886 8.987429 14.076343 17.014857 21.123657 24.064 21.123657z m-7.085715-291.893029c18.243657 0 35.808914-13.739886 52.675658-41.217828 16.866743-27.477943 25.311086-56.031086 25.311085-85.675886 0-47.4368-17.660343-93.101714-52.977371-136.974629-28.968229-36.373943-53.165714-54.560914-72.6144-54.560914-7.1424 0-10.704457 3.223771-10.704457 9.649371 0 4.033829 3.373714 8.442514 10.157714 13.268115 14.343314 9.479314 27.2896 24.689371 38.842514 45.589943 11.552914 20.937143 17.338514 39.294171 17.338515 55.087542 0 44.213029-20.993829 78.551771-62.965029 103.034515-11.101257 6.312229-16.641829 12.834743-16.641829 19.543771 0 6.312229 3.543771 12.834743 10.629486 19.543772l25.404343 22.5024 21.8624 26.064457c3.163429 2.750171 7.725714 4.145371 13.681371 4.145371zM845.995886 536.539429v168.5632c0 55.786057-7.595886 95.928686-22.765715 120.466285-15.189943 24.5376-42.084571 39.9744-80.720457 46.306743-12.231314 1.488457-18.336914 5.220571-18.336914 11.214629 0 8.594286 12.514743 12.909714 37.5424 12.909714h37.5424c41.311086 0 72.709486-14.701714 94.1568-44.099657s32.190171-72.501029 32.190171-129.323886v-171.050057c0-32.378514 1.376914-54.767543 4.1472-67.1872 2.770286-12.437943 9.685943-27.139657 20.768915-44.099657 10.667886-16.170057 23.5392-29.984914 38.5792-41.424457 6.709029-5.125486 10.082743-9.479314 10.082743-13.023086 0-3.580343-3.373714-8.122514-10.082743-13.663086-15.04-11.496229-27.911314-25.349486-38.5792-41.576228-11.082971-17.0368-17.998629-31.775086-20.768915-44.251429-2.770286-12.476343-4.1472-34.752-4.1472-66.8288v-172.256914c0-57.029486-10.742857-100.282514-32.190171-129.795657-21.447314-29.494857-52.845714-44.251429-94.1568-44.251429h-37.5424c-25.442743 0-37.957486 4.637257-37.5424 13.871543 0.376686 6.559086 7.670857 11.176229 21.880686 13.871543 38.634057 6.747429 64.945371 21.730743 78.946743 44.909714 13.984914 23.2192 20.993829 63.173486 20.993828 119.882972v168.373028c0 61.4784 16.0768 105.106286 48.246857 130.889143l12.061257 9.517714c5.917257 4.750629 8.875886 8.517486 8.875886 11.307886 0 2.375314-2.958629 5.937371-8.875886 10.686171l-12.061257 9.499429c-32.168229 25.303771-48.245029 68.820114-48.245028 130.561829z"  horiz-adv-x="1024" />

    
    <glyph glyph-name="copy" unicode="&#59222;" d="M950.889985 896H292.898017c-40.376946 0-73.110219-32.733273-73.110218-73.110219v-657.991968c0-40.376946 32.733273-73.110219 73.110218-73.110218h657.991968c40.376946 0 73.110219 32.733273 73.110219 73.110218V822.889781c0 40.376946-32.733273 73.110219-73.110219 73.110219zM841.681596-54.889781H73.110423V713.681392c0 20.189387-16.365722 36.555109-36.55511 36.55511s-36.555109-16.365722-36.555109-36.55511v-804.212405c0-20.189387 17.2796-37.468987 37.468987-37.468987h804.212405c20.189387 0 36.555109 16.365722 36.55511 36.555109s-16.365722 36.555109-36.55511 36.55511z"  horiz-adv-x="1024" />

    
    <glyph glyph-name="down" unicode="&#59223;" d="M563.719314 112.848457a74.157714 74.157714 0 0 1 5.096229 5.652114l46.478628 46.153143 157.0688 156.955429 230.211658 230.154971c14.282971 14.282971 21.423543 32.9728 21.423542 51.691886 0 18.719086-7.140571 37.423543-21.423542 51.704686S969.576229 676.575086 950.857143 676.575086s-37.438171-7.144229-51.719314-21.4272L668.997486 425.007543 512 268.008229l-156.997486 156.997485L124.862171 655.146057c-14.282971 14.282971-33.000229 21.423543-51.719314 21.423543s-37.438171-7.140571-51.719314-21.423543C7.140571 640.863086 0 622.144 0 603.424914c0-18.719086 7.140571-37.438171 21.423543-51.719314l230.211657-230.211657 157.0688-156.840229 46.480457-46.153143a73.773714 73.773714 0 0 1 5.096229-5.652114c28.564114-28.564114 74.874514-28.564114 103.438628 0z"  horiz-adv-x="1024" />

    
    <glyph glyph-name="data" unicode="&#59224;" d="M293.719771 384.104229c1.728-0.069486 3.465143-0.104229 5.2096-0.104229 31.008914 0 59.4432 11.017143 81.605486 29.348571L600.407771 281.424457a128.704 128.704 0 0 1-2.545371-25.539657c0-70.754743 57.358629-128.113371 128.113371-128.113371s128.113371 57.358629 128.113372 128.113371c0 38.376229-16.872229 72.810057-43.604114 96.288914l81.098971 202.748343c1.728-0.069486 3.465143-0.104229 5.2096-0.104228 70.754743 0 128.113371 57.358629 128.113371 128.113371S967.548343 811.044571 896.7936 811.044571s-128.113371-57.358629-128.113371-128.113371c0-38.3744 16.872229-72.810057 43.604114-96.288914l-81.097143-202.746515a129.671314 129.671314 0 0 1-5.2096 0.104229c-31.008914 0-59.4432-11.017143-81.605486-29.348571L424.4992 486.575543a128.704 128.704 0 0 1 2.545371 25.539657c0 70.754743-57.358629 128.113371-128.113371 128.113371s-128.113371-57.358629-128.113371-128.113371c0-38.3744 16.872229-72.810057 43.604114-96.288914L133.321143 213.076114a129.671314 129.671314 0 0 1-5.2096 0.104229c-70.754743 0-128.113371-57.358629-128.113372-128.113372s57.358629-128.1152 128.113372-128.1152 128.113371 57.358629 128.113371 128.1152c0 38.3744-16.872229 72.810057-43.604114 96.288915l81.098971 202.748343z"  horiz-adv-x="1024" />

    
    <glyph glyph-name="delete" unicode="&#59225;" d="M73.142857 18.285714c0-80.791771 65.493943-146.285714 146.285714-146.285714h585.142858c80.791771 0 146.285714 65.493943 146.285714 146.285714V603.428571H73.142857v-585.142857z m365.714286 513.828572h73.142857v-330.971429c0-20.1984-16.373029-36.571429-36.571429-36.571428s-36.571429 16.373029-36.571428 36.571428V532.114286z m-219.428572 0h73.142858v-404.114286c0-20.1984-16.373029-36.571429-36.571429-36.571429s-36.571429 16.373029-36.571429 36.571429V532.114286zM951.771429 821.028571H658.24c0.014629 0.608914 0.045714 1.216 0.045714 1.828572 0 40.394971-32.747886 73.142857-73.142857 73.142857h-144.457143c-40.394971 0-73.142857-32.747886-73.142857-73.142857 0-0.612571 0.031086-1.219657 0.045714-1.828572H72.228571C32.338286 821.028571 0 788.690286 0 748.8S32.338286 676.571429 72.228571 676.571429h879.542858c39.890286 0 72.228571 32.338286 72.228571 72.228571S991.661714 821.028571 951.771429 821.028571z"  horiz-adv-x="1024" />

    
    <glyph glyph-name="close" unicode="&#59226;" d="M874.038857 125.4016L615.440457 384 874.038857 642.5984c28.564114 28.564114 28.564114 74.876343 0 103.440457s-74.876343 28.564114-103.440457 0L512 487.440457 253.4016 746.038857c-28.564114 28.564114-74.876343 28.564114-103.440457 0-28.564114-28.564114-28.564114-74.876343 0-103.440457L408.559543 384 149.961143 125.4016c-28.564114-28.564114-28.564114-74.876343 0-103.440457s74.876343-28.564114 103.440457 0L512 280.559543 770.5984 21.961143c28.564114-28.564114 74.876343-28.564114 103.440457 0 28.564114 28.564114 28.564114 74.876343 0 103.440457z"  horiz-adv-x="1024" />

    
    <glyph glyph-name="download" unicode="&#59227;" d="M251.6352 467.777829l157.0688-156.840229 46.480457-46.153143a73.429943 73.429943 0 0 1 5.096229-5.652114c28.564114-28.564114 74.876343-28.564114 103.438628 0a74.157714 74.157714 0 0 1 5.096229 5.652114l46.478628 46.153143 157.0688 156.9536 83.925943 83.869257c14.282971 14.282971 21.423543 32.9728 21.423543 51.691886 0 18.719086-7.140571 37.423543-21.423543 51.704686-14.282971 14.282971-33.000229 21.416229-51.719314 21.416228s-37.438171-7.144229-51.719314-21.4272l-83.854629-83.854628L585.142857 487.4368V822.857143c0 40.394971-32.747886 73.142857-73.142857 73.142857s-73.142857-32.747886-73.142857-73.142857v-335.420343l-83.854629 83.8528-83.854628 83.854629c-14.282971 14.282971-33.000229 21.421714-51.719315 21.421714s-37.438171-7.140571-51.719314-21.421714C153.426286 640.863086 146.285714 622.144 146.285714 603.424914c0-18.719086 7.140571-37.438171 21.423543-51.719314l83.925943-83.927771zM950.857143 237.714286c-40.394971 0-73.142857-32.747886-73.142857-73.142857v-146.285715H146.285714v146.285715c0 40.394971-32.747886 73.142857-73.142857 73.142857S0 204.9664 0 164.571429v-219.428572c0-40.394971 32.747886-73.142857 73.142857-73.142857h877.714286c40.394971 0 73.142857 32.747886 73.142857 73.142857V164.571429c0 40.394971-32.747886 73.142857-73.142857 73.142857z"  horiz-adv-x="1024" />

    
    <glyph glyph-name="lastpage" unicode="&#59228;" d="M563.726629 435.719314a74.157714 74.157714 0 0 1-5.652115 5.096229l-46.153143 46.478628-156.955428 157.0688L124.8128 874.576457C110.529829 888.859429 91.84 896 73.120914 896 54.401829 896 35.697371 888.859429 21.416229 874.576457S0 841.576229 0 822.857143s7.144229-37.438171 21.4272-51.719314l230.142171-230.140343L408.566857 384l-156.997486-156.997486L21.429029-3.137829C7.147886-17.418971 0.007314-36.138057 0.007314-54.857143c0-18.719086 7.140571-37.438171 21.423543-51.719314C35.712-120.859429 54.431086-128 73.150171-128c18.719086 0 37.438171 7.140571 51.719315 21.423543l230.211657 230.211657 156.840228 157.0688 46.153143 46.480457a73.773714 73.773714 0 0 1 5.652115 5.096229c28.564114 28.564114 28.564114 74.874514 0 103.438628zM1002.576457 435.719314a74.157714 74.157714 0 0 1-5.652114 5.096229l-46.153143 46.478628-156.955429 157.0688L563.662629 874.576457C549.379657 888.859429 530.689829 896 511.970743 896c-18.719086 0-37.423543-7.140571-51.704686-21.423543-14.281143-14.282971-21.416229-33.000229-21.416228-51.719314s7.144229-37.438171 21.4272-51.719314l230.142171-230.140343L847.416686 384l-156.997486-156.997486-230.140343-230.140343C445.997714-17.418971 438.857143-36.138057 438.857143-54.857143s7.140571-37.438171 21.423543-51.719314C474.561829-120.859429 493.280914-128 512-128c18.719086 0 37.438171 7.140571 51.719314 21.423543l230.211657 230.211657 156.840229 157.0688 46.153143 46.480457a73.773714 73.773714 0 0 1 5.652114 5.096229c28.564114 28.564114 28.564114 74.874514 0 103.438628z"  horiz-adv-x="1024" />

    
    <glyph glyph-name="edit" unicode="&#59229;" d="M551.381943 216.502857c-28.445257-28.445257-83.562057-60.055771-122.479543-70.242743l-138.715429-36.309943c-6.145829-1.609143-11.909486-2.377143-17.214171-2.377142-28.289829 0-43.600457 21.842286-35.022629 54.613942l36.309943 138.715429c10.186971 38.917486 41.795657 94.032457 70.242743 122.477714L743.978057 822.857143H146.285714c-40.394971 0-73.142857-32.747886-73.142857-73.142857v-731.428572c0-40.394971 32.747886-73.142857 73.142857-73.142857h731.428572c40.394971 0 73.142857 32.747886 73.142857 73.142857V615.978057L551.381943 216.502857zM345.020343 282.3808l-23.175314-88.5376 88.5376 23.175314c26.512457 6.939429 69.9008 31.824457 89.28 51.203657L1024 792.561371V822.857143c0 40.394971-32.747886 73.142857-73.142857 73.142857h-30.295772L396.222171 371.662629c-19.3792-19.3792-44.2624-62.767543-51.201828-89.281829z"  horiz-adv-x="1024" />

    
    <glyph glyph-name="eye" unicode="&#59230;" d="M512 749.714286C146.280229 749.714286 0 383.085714 0 383.085714s146.285714-364.8 512-364.8 512 364.8 512 364.8-146.285714 366.628571-512 366.628572z m0-585.142857c-121.186743 0-219.428571 98.241829-219.428571 219.428571s98.241829 219.428571 219.428571 219.428571 219.428571-98.241829 219.428571-219.428571-98.241829-219.428571-219.428571-219.428571zM512 384m-109.714286 0a109.714286 109.714286 0 1 1 219.428572 0 109.714286 109.714286 0 1 1-219.428572 0Z"  horiz-adv-x="1024" />

    
    <glyph glyph-name="eye1" unicode="&#59231;" d="M512 896C229.229714 896 0 666.770286 0 384s229.229714-512 512-512 512 229.229714 512 512S794.770286 896 512 896z m-3.351771-758.151314C284.319086 137.848686 146.285714 384 146.285714 384s139.351771 246.151314 362.362515 246.151314C719.780571 630.151314 877.714286 384 877.714286 384s-159.253943-246.151314-369.066057-246.151314zM512 525.714286c-78.142171 0-141.714286-63.572114-141.714286-141.714286s63.572114-141.714286 141.714286-141.714286 141.714286 63.572114 141.714286 141.714286-63.572114 141.714286-141.714286 141.714286z m0-210.285715c-37.871543 0-68.571429 30.701714-68.571429 68.571429s30.699886 68.571429 68.571429 68.571429 68.571429-30.701714 68.571429-68.571429-30.699886-68.571429-68.571429-68.571429z"  horiz-adv-x="1024" />

    
    <glyph glyph-name="explorer" unicode="&#59232;" d="M896.187063 635.569371c24.636343 23.0656 31.550171 104.799086 31.550171 104.799086 7.740343 86.032457-32.223086 121.684114-32.223085 121.684114-67.079314 68.205714-229.531429 12.545829-229.531429 12.545829-205.039543-65.115429-375.213714-225.387886-375.213714-225.387886C21.28512 413.291886 0.667977 172.165486 0.667977 172.165486c-11.574857-165.564343 131.523657-166.793143 131.523657-166.793143 147.882057-7.336229 217.276343 45.397943 225.9456 52.580571 93.2352-49.077029 177.664-46.111086 177.664-46.111085C863.270949 32.623543 928.726491 293.271771 928.726491 293.271771H711.091749c-49.003886-117.293714-194.6752-93.844114-194.6752-93.844114-143.127771 28.719543-144.429714 181.2096-144.429715 181.2096h577.596343l0.010972 0.042057c6.840686 109.891657-17.682286 192.885029-53.407086 254.890057z m-181.613714 156.975543C497.092206 664.877714 445.522834 603.264 445.522834 603.264c51.691886 43.900343 122.243657 40.634514 122.243657 40.634514 161.398857-17.826743 156.139886-153.214171 156.253258-153.792h-352.054858c13.156571 55.111314 32.821029 78.632229 40.881372 86.352457-149.006629-126.378057-239.855543-314.377143-239.855543-314.377142 27.324343-81.991314 102.0288-154.505143 164.169143-192.277943-46.555429-30.661486-100.540343-35.807086-100.540343-35.807086-131.523657-15.614171-127.658057 87.354514-127.658057 87.354514 3.792457 106.907429 110.853486 273.596343 110.853486 273.596343 97.967543 139.552914 233.045943 256.813714 233.045942 256.813714C586.317349 762.2144 701.38752 815.952457 701.38752 815.952457c120.848457 60.609829 176.9728 13.714286 176.9728 13.714286v0.010971h0.031086c71.325257-53.675886 21.330286-161.181257 10.684343-182.129371-71.8208 114.5216-174.5024 144.996571-174.5024 144.996571z"  horiz-adv-x="1024" />

    
    <glyph glyph-name="export" unicode="&#59233;" d="M1024 527.787886l-0.160914 221.966628-0.232229 65.501257c0.257829 2.497829 0.394971 5.034057 0.393143 7.599543 0 40.394971-32.747886 73.142857-73.142857 73.142857-2.567314 0-5.101714-0.135314-7.599543-0.393142L877.756343 895.835429 655.709257 895.917714 537.060571 895.957943c-20.1984 0-38.464-8.1664-51.701028-21.403429s-21.412571-31.511771-21.412572-51.710171 8.192-38.478629 21.4272-51.713829 31.524571-21.421714 51.722972-21.419885h118.588343l118.586514 0.001828-237.176686-237.176686c-28.564114-28.564114-28.564114-74.876343 0-103.440457s74.876343-28.564114 103.440457 0L877.714286 646.273829V409.098971c0-20.1984 8.186514-38.482286 21.423543-51.719314 13.237029-13.237029 31.522743-21.423543 51.719314-21.423543 20.1984-0.001829 38.484114 8.186514 51.719314 21.421715 13.237029 13.237029 21.423543 31.522743 21.421714 51.719314l0.001829 118.690743zM950.857143 237.714286c-40.394971 0-73.142857-32.747886-73.142857-73.142857v-146.285715H146.285714V749.714286h146.285715c40.394971 0 73.142857 32.747886 73.142857 73.142857S332.9664 896 292.571429 896H73.142857C32.747886 896 0 863.252114 0 822.857143v-877.714286c0-40.394971 32.747886-73.142857 73.142857-73.142857h877.714286c40.394971 0 73.142857 32.747886 73.142857 73.142857V164.571429c0 40.394971-32.747886 73.142857-73.142857 73.142857z"  horiz-adv-x="1024" />

    
    <glyph glyph-name="check_box" unicode="&#59234;" d="M950.857143 822.857143v-877.714286H73.142857V822.857143h877.714286m0 73.142857H73.142857C32.747886 896 0 863.252114 0 822.857143v-877.714286c0-40.394971 32.747886-73.142857 73.142857-73.142857h877.714286c40.394971 0 73.142857 32.747886 73.142857 73.142857V822.857143c0 40.394971-32.747886 73.142857-73.142857 73.142857z"  horiz-adv-x="1024" />

    
    <glyph glyph-name="check_box1" unicode="&#59235;" d="M950.857143 896H73.142857C32.747886 896 0 863.252114 0 822.857143v-877.714286c0-40.394971 32.747886-73.142857 73.142857-73.142857h877.714286c40.394971 0 73.142857 32.747886 73.142857 73.142857V822.857143c0 40.394971-32.747886 73.142857-73.142857 73.142857z m-76.818286-356.840229L460.280686 125.4016c-28.564114-28.564114-74.876343-28.564114-103.440457 0L149.961143 332.280686c-28.564114 28.564114-28.564114 74.874514 0 103.438628s74.876343 28.564114 103.440457 0l155.159771-155.159771 362.038858 362.038857c28.564114 28.564114 74.876343 28.564114 103.440457 0 28.562286-28.564114 28.562286-74.874514-0.001829-103.438629z"  horiz-adv-x="1024" />

    
    <glyph glyph-name="h" unicode="&#59236;" d="M512 896H33.8944l92.536686-922.327771L512-128l385.568914 101.672229L990.1056 896H512z m291.680914-306.980571H349.103543l7.583086-107.028115h431.842742L758.224457 132.370286l-250.016914-64.215772L265.764571 132.370286l-15.151542 178.375314h121.225142l7.575772-85.621029 128.7936-35.675428 136.369371 35.675428 7.583086 142.705372H243.039086L212.736 703.1808h598.531657l-7.586743-114.161371z"  horiz-adv-x="1024" />

    
    <glyph glyph-name="ghost" unicode="&#59237;" d="M949.950171 460.618971C950.005029 700.992 751.0528 896 510.895543 896S73.142857 701.048686 73.142857 460.618971l0.906972-588.618971 146.133942 166.048914L366.317714-128l146.133943 166.048914 146.133943-166.048914 146.133943 166.048914L950.857143-128l-0.906972 588.618971zM329.142857 310.857143c-60.593371 0-109.714286 49.120914-109.714286 109.714286s49.120914 109.714286 109.714286 109.714285 109.714286-49.120914 109.714286-109.714285-49.120914-109.714286-109.714286-109.714286z m365.714286 0c-60.593371 0-109.714286 49.120914-109.714286 109.714286s49.120914 109.714286 109.714286 109.714285 109.714286-49.120914 109.714286-109.714285-49.120914-109.714286-109.714286-109.714286z"  horiz-adv-x="1024" />

    
    <glyph glyph-name="help" unicode="&#59238;" d="M512 896C229.229714 896 0 666.770286 0 384s229.229714-512 512-512 512 229.229714 512 512S794.770286 896 512 896z m0-877.714286c-44.884114 0-81.269029 36.384914-81.269029 81.269029s36.386743 81.269029 81.269029 81.269028 81.269029-36.384914 81.269029-81.269028S556.884114 18.285714 512 18.285714z m94.922971 335.389257c-12.024686-10.130286-29.944686-25.223314-34.000457-32.5248-1.003886-32.784457-27.894857-59.055543-60.922514-59.055542-33.664 0-60.951771 27.287771-60.951771 60.951771 0 58.722743 42.885486 94.844343 77.346742 123.867429 40.223086 33.877943 64.875886 56.815543 64.875886 99.626057 0 44.8128-36.458057 81.270857-81.269028 81.270857s-81.269029-36.458057-81.269029-81.270857c0-33.664-27.287771-60.951771-60.951771-60.951772-33.664 0-60.951771 27.287771-60.951772 60.951772C308.8256 658.570971 399.968914 749.714286 512 749.714286s203.1744-91.143314 203.1744-203.1744c0-101.692343-65.142857-156.558629-108.251429-192.864915z"  horiz-adv-x="1024" />

    
    <glyph glyph-name="settings" unicode="&#59239;" d="M941.851025 484.089579h-53.552683c-8.494465 31.606859-20.638039 61.670571-36.33965 89.567945l48.177256 48.177256c32.072463 32.072463 32.072463 84.065628 0 116.139114l-29.034267 29.034266c-32.067346 32.072463-84.060511 32.072463-116.132974 0l-47.244-47.238884c-28.886911 16.815991-60.083423 29.933753-93.071746 38.921452V813.860235c0 45.349861-36.766368 82.116229-82.121345 82.116229H491.464291c-45.344744 0-82.121346-36.766368-82.121346-82.116229v-55.168484c-32.983205-8.987698-64.184835-22.10546-93.072768-38.921451l-47.244001 47.238884c-32.0653 32.072463-84.054371 32.072463-116.132974 0l-29.034266-29.034267c-32.072463-32.072463-32.072463-84.065628 0-116.139114L172.041308 573.658548c-15.70161-27.897374-27.847232-57.96211-36.344766-89.567945H82.142835C36.787858 484.089579 0.021489 447.317071 0.021489 401.96721v-41.061184c0-45.354977 36.766368-82.127486 82.121346-82.127486h54.213739c8.81169-31.896454 21.468964-62.131059 37.624923-90.193185l-50.122561-50.117444c-32.072463-32.072463-32.072463-84.071767 0-116.139114l29.034266-29.034267c32.078603-32.072463 84.065628-32.072463 116.132974 0l50.43467 50.429553c27.982308-15.922644 58.125839-28.324092 89.880053-36.981263v-52.603055c0-45.349861 36.777625-82.116229 82.121346-82.116229h41.066301c45.354977 0 82.121346 36.766368 82.121345 82.116229v52.603055c31.754215 8.652054 61.902862 21.058618 89.880054 36.981263l50.434669-50.429553c32.072463-32.072463 84.065628-32.072463 116.132974 0l29.034267 29.034267c32.072463 32.066323 32.072463 84.065628 0 116.139114l-50.117445 50.117444c16.150842 28.062126 28.808116 58.296731 37.624923 90.193185h54.207599c45.361117 0 82.125439 36.771485 82.129532 82.127486v41.061184c0.002047 45.349861-36.764322 82.122369-82.125439 82.122369z m-429.854095-329.770655c-124.727723 0-225.838561 101.108792-225.838561 225.833445 0 124.727723 101.108792 225.833445 225.838561 225.833445 124.722606 0 225.833445-101.104699 225.833445-225.833445 0-124.723629-101.108792-225.833445-225.833445-225.833445zM512.00307 486.651938c-56.69321 0-102.658078-45.959751-102.658078-102.646821 0-56.69935 45.963845-102.658078 102.658078-102.658078 56.692187 0 102.651938 45.958728 102.651938 102.658078 0 56.688093-45.958728 102.646821-102.651938 102.646821z"  horiz-adv-x="1024" />

    
    <glyph glyph-name="input" unicode="&#59240;" d="M428.222171 123.6352l156.840229 157.0688 46.153143 46.480457a73.429943 73.429943 0 0 1 5.652114 5.096229c28.564114 28.564114 28.564114 74.876343 0 103.438628a74.157714 74.157714 0 0 1-5.652114 5.096229l-46.153143 46.478628-156.9536 157.0688-83.869257 83.925943c-14.282971 14.282971-32.9728 21.423543-51.691886 21.423543s-37.423543-7.140571-51.704686-21.423543c-14.282971-14.282971-21.416229-33.000229-21.416228-51.719314s7.144229-37.438171 21.4272-51.719314l83.854628-83.854629L408.5632 457.142857H73.142857c-40.394971 0-73.142857-32.747886-73.142857-73.142857s32.747886-73.142857 73.142857-73.142857h335.420343l-83.8528-83.854629-83.854629-83.854628c-14.282971-14.282971-21.421714-33.000229-21.421714-51.719315s7.140571-37.438171 21.421714-51.719314c14.281143-14.282971 33.000229-21.423543 51.719315-21.423543s37.438171 7.140571 51.719314 21.423543l83.927771 83.925943zM658.285714 822.857143c0-40.394971 32.747886-73.142857 73.142857-73.142857h146.285715v-731.428572h-146.285715c-40.394971 0-73.142857-32.747886-73.142857-73.142857s32.747886-73.142857 73.142857-73.142857h219.428572c40.394971 0 73.142857 32.747886 73.142857 73.142857V822.857143c0 40.394971-32.747886 73.142857-73.142857 73.142857H731.428571c-40.394971 0-73.142857-32.747886-73.142857-73.142857z"  horiz-adv-x="1024" />

    
    <glyph glyph-name="left" unicode="&#59241;" d="M240.853783 332.291759c1.815736-1.815736 3.702784-3.510788 5.652003-5.096129l46.152237-46.477716 156.952345-157.065714 230.150451-230.207136c14.282691-14.282691 32.972152-21.423122 51.69087-21.423122 18.718718 0 37.422808 7.140431 51.70367 21.423122s21.415808 32.99958 21.415808 51.718299-7.144088 37.437436-21.426779 51.718298L553.006737 227.015655 396.010507 384.010057l156.994402 156.994402L783.140731 771.140281c14.282691 14.282691 21.423122 32.99958 21.423122 51.718299s-7.140431 37.437436-21.423122 51.718298C768.85804 888.859569 750.139322 896 731.420604 896c-18.718718 0-37.437436-7.140431-51.718298-21.423122L449.493342 644.369743l-156.837148-157.065715-46.152236-46.479544a73.772265 73.772265 0 0 1-5.652003-5.096129c-28.561725-28.563553-28.561725-74.873044 0.001828-103.436596z"  horiz-adv-x="1024" />

    
    <glyph glyph-name="LPO" unicode="&#59242;" d="M809.729829 21.178514H512.6272c-123.384686 0-223.767771 100.383086-223.767771 223.7824V821.410743C288.859429 862.613943 255.473371 896 214.270171 896S139.680914 862.613943 139.680914 821.410743v-576.449829C139.680914 39.306971 306.987886-128 512.6272-128h297.102629c41.2032 0 74.589257 33.386057 74.589257 74.589257 0 41.2032-33.386057 74.589257-74.589257 74.589257z"  horiz-adv-x="1024" />

    
    <glyph glyph-name="menu" unicode="&#59243;" d="M950.857143 676.571429c0-40.394971-32.747886-73.142857-73.142857-73.142858H146.285714c-40.394971 0-73.142857 32.747886-73.142857 73.142858s32.747886 73.142857 73.142857 73.142857h731.428572c40.394971 0 73.142857-32.747886 73.142857-73.142857zM950.857143 384c0-40.394971-32.747886-73.142857-73.142857-73.142857H146.285714c-40.394971 0-73.142857 32.747886-73.142857 73.142857s32.747886 73.142857 73.142857 73.142857h731.428572c40.394971 0 73.142857-32.747886 73.142857-73.142857zM950.857143 91.428571c0-40.394971-32.747886-73.142857-73.142857-73.142857H146.285714c-40.394971 0-73.142857 32.747886-73.142857 73.142857s32.747886 73.142857 73.142857 73.142858h731.428572c40.394971 0 73.142857-32.747886 73.142857-73.142858z"  horiz-adv-x="1024" />

    
    <glyph glyph-name="link" unicode="&#59244;" d="M402.285714 640m-73.142857 0a73.142857 73.142857 0 1 1 146.285714 0 73.142857 73.142857 0 1 1-146.285714 0ZM402.285714 128m-73.142857 0a73.142857 73.142857 0 1 1 146.285714 0 73.142857 73.142857 0 1 1-146.285714 0ZM512 896c-282.770286 0-512-229.229714-512-512s229.229714-512 512-512 512 229.229714 512 512-229.229714 512-512 512z m213.167543-434.581943c-8.426057-41.572571-25.413486-73.7792-51.311543-97.519543-34.269257-31.413029-77.909943-42.324114-116.414171-51.949714-55.4752-13.867886-96.318171-24.093257-111.786058-83.156114 39.019886-16.813714 66.344229-55.605029 66.344229-100.792686 0-60.593371-49.120914-109.714286-109.714286-109.714286s-109.714286 49.120914-109.714285 109.714286c0 47.765943 30.535314 88.382171 73.142857 103.445943V536.554057c-42.607543 15.063771-73.142857 55.68-73.142857 103.445943 0 60.593371 49.120914 109.714286 109.714285 109.714286s109.714286-49.120914 109.714286-109.714286c0-47.765943-30.535314-88.382171-73.142857-103.445943v-193.097143c31.338057 22.063543 67.962514 31.232 100.843886 39.453257 55.4752 13.867886 96.318171 24.093257 111.786057 83.156115-39.019886 16.813714-66.344229 55.605029-66.344229 100.792685 0 60.593371 49.120914 109.714286 109.714286 109.714286s109.714286-49.120914 109.714286-109.714286c0-50.075429-33.559771-92.284343-79.403886-105.440914zM694.857143 566.857143m-73.142857 0a73.142857 73.142857 0 1 1 146.285714 0 73.142857 73.142857 0 1 1-146.285714 0Z"  horiz-adv-x="1024" />

    
    <glyph glyph-name="link1" unicode="&#59245;" d="M877.713633 603.427265c0 80.791627-65.493826 146.285453-146.285453 146.285453s-146.285453-65.493826-146.285453-146.285453c0-53.679447 28.931605-100.578563 72.032785-126.028575-23.738472-27.311494-69.950047-48.868484-142.425345-78.633916-57.656583-23.679958-117.123448-48.100486-167.321302-86.288303V614.100618c53.600819 21.705104 91.428408 74.225239 91.428408 135.6121 0 80.791627-65.493826 146.285453-146.285453 146.285453s-146.285453-65.493826-146.285453-146.285453c0-61.385033 37.82759-113.905168 91.428409-135.6121v-460.204893c-53.600819-21.705104-91.428408-74.225239-91.428409-135.612101 0-80.791627 65.493826-146.285453 146.285453-146.285453s146.285453 65.493826 146.285453 146.285453c0 57.941839-33.691368 108.009864-82.548881 131.698965 8.998384 26.210696 25.040412 48.340028 49.076941 68.423192 39.632386 33.113541 96.270457 56.374756 151.045216 78.869802 52.249507 21.456419 106.27821 43.646093 148.304193 75.644208 33.854111 25.777325 57.265269 56.149843 70.052446 90.757324 59.620465 18.477681 102.926445 74.055182 102.926445 139.75015z m-585.141813 219.42818c40.394899 0 73.142727-32.747827 73.142727-73.142727s-32.747827-73.142727-73.142727-73.142726-73.142727 32.747827-73.142726 73.142726 32.747827 73.142727 73.142726 73.142727z m0-877.712718c-40.394899 0-73.142727 32.747827-73.142726 73.142726s32.747827 73.142727 73.142726 73.142727 73.142727-32.747827 73.142727-73.142727-32.747827-73.142727-73.142727-73.142726z m438.85636 585.141812c-40.394899 0-73.142727 32.747827-73.142727 73.142726s32.747827 73.142727 73.142727 73.142727 73.142727-32.747827 73.142726-73.142727-32.747827-73.142727-73.142726-73.142726z"  horiz-adv-x="1024" />

    
    <glyph glyph-name="downward" unicode="&#59246;" d="M367.387429-25.479314l65.073371-64.6144a102.586514 102.586514 0 0 1 7.135086-7.912229c39.989029-39.989029 104.826514-39.989029 144.813714 0a104.040229 104.040229 0 0 1 7.135086 7.912229l65.069714 64.6144 264.206629 263.965257c19.995429 19.995429 29.992229 46.162286 29.992228 72.369371s-9.9968 52.392229-29.992228 72.385829c-19.995429 19.995429-46.200686 29.983086-72.407772 29.983086s-52.414171-10.002286-72.407771-29.997715l-161.603657-161.607314V793.6c0 56.552229-45.847771 102.4-102.4 102.4s-102.4-45.847771-102.4-102.4v-571.9808l-161.607315 161.603657c-19.995429 19.995429-46.200686 29.9904-72.407771 29.9904s-52.414171-9.9968-72.407772-29.9904c-19.995429-19.9936-29.992229-46.200686-29.992228-72.407771s9.9968-52.414171 29.992228-72.407772l264.208458-263.886628z"  horiz-adv-x="1024" />

    
    <glyph glyph-name="out" unicode="&#59247;" d="M896.09728 768H128.96768c-46.880427 0-85.236053-38.357333-85.236053-85.236053v-84.768427h85.236053V683.615573h767.1296v-597.935786H128.96768v86.04672H43.72992v-85.620054c0-46.880427 38.357333-84.384427 85.236053-84.384426h767.1296c46.880427 0 85.236053 37.504 85.236054 84.384426V682.763947C981.333333 730.069333 942.977707 768 896.09728 768zM214.203733 342.242987h426.18368v85.236053H214.203733v127.854933l-170.473813-170.472106 170.473813-170.473814z"  horiz-adv-x="1024" />

    
    <glyph glyph-name="upward" unicode="&#59248;" d="M656.6144 793.479314L591.541029 858.093714a102.586514 102.586514 0 0 1-7.135086 7.912229c-39.989029 39.989029-104.826514 39.989029-144.813714 0a104.040229 104.040229 0 0 1-7.135086-7.912229l-65.069714-64.6144L103.178971 529.514057c-19.995429-19.995429-29.992229-46.162286-29.992228-72.369371s9.9968-52.392229 29.992228-72.385829c19.995429-19.995429 46.200686-29.983086 72.407772-29.983086s52.414171 10.002286 72.407771 29.997715l161.603657 161.607314V-25.6c0-56.552229 45.847771-102.4 102.4-102.4s102.4 45.847771 102.4 102.4V546.3808l161.607315-161.603657c19.995429-19.995429 46.200686-29.9904 72.407771-29.9904s52.414171 9.9968 72.407772 29.9904c19.995429 19.9936 29.992229 46.200686 29.992228 72.407771s-9.9968 52.414171-29.992228 72.407772L656.6144 793.479314z"  horiz-adv-x="1024" />

    
    <glyph glyph-name="done" unicode="&#59249;" d="M512 896C229.229714 896 0 666.770286 0 384s229.229714-512 512-512 512 229.229714 512 512S794.770286 896 512 896z m310.319543-356.840229l-362.038857-362.038857c-14.281143-14.282971-37.438171-14.281143-51.719315 0L201.682286 384c-14.282971 14.281143-14.281143 37.436343 0 51.719314s37.436343 14.282971 51.719314 0l181.019429-181.019428 336.177371 336.1792c14.282971 14.282971 37.438171 14.282971 51.721143 0 14.281143-14.281143 14.281143-37.436343 0-51.719315z"  horiz-adv-x="1024" />

    
    <glyph glyph-name="search" unicode="&#59250;" d="M585.506743 896c-242.172343 0-438.491429-196.319086-438.491429-438.493257 0-94.111086 29.659429-181.290057 80.124343-252.721372L21.566171-0.788114c-28.564114-28.564114-28.564114-74.876343 0-103.440457l1.2928-1.2928c28.564114-28.564114 74.876343-28.564114 103.440458 0l205.408914 205.408914c71.630629-50.927543 159.217371-80.874057 253.800228-80.874057C827.679086 19.015314 1024 215.3344 1024 457.506743 1024 699.680914 827.679086 896 585.506743 896z m206.623086-645.114514c-55.191771-55.189943-128.570514-85.584457-206.621258-85.584457s-151.431314 30.394514-206.621257 85.584457S293.302857 379.456 293.302857 457.506743c0 78.052571 30.394514 151.431314 85.584457 206.621257S507.456 749.714286 585.506743 749.714286s151.431314-30.394514 206.621257-85.584457C847.319771 608.938057 877.714286 535.559314 877.714286 457.506743c0-78.050743-30.394514-151.431314-85.584457-206.621257z"  horiz-adv-x="1024" />

    
    <glyph glyph-name="right" unicode="&#59252;" d="M783.147886 435.719314a74.157714 74.157714 0 0 1-5.652115 5.096229l-46.153142 46.478628-156.955429 157.0688L344.234057 874.576457C329.951086 888.859429 311.261257 896 292.542171 896c-18.719086 0-37.423543-7.140571-51.704685-21.423543S219.421257 841.576229 219.421257 822.857143s7.144229-37.438171 21.4272-51.719314l230.142172-230.140343L627.988114 384l-156.997485-156.997486-230.138515-230.140343C226.569143-17.418971 219.428571-36.138057 219.428571-54.857143s7.140571-37.438171 21.423543-51.719314C255.133257-120.859429 273.852343-128 292.571429-128c18.719086 0 37.438171 7.140571 51.719314 21.423543l230.211657 230.211657 156.840229 157.0688 46.153142 46.480457a73.773714 73.773714 0 0 1 5.652115 5.096229c28.564114 28.564114 28.564114 74.874514 0 103.438628z"  horiz-adv-x="1024" />

    
    <glyph glyph-name="slider" unicode="&#59253;" d="M804.571429-54.857143c-40.394971 0-73.142857 32.747886-73.142858 73.142857V749.714286c0 40.394971 32.747886 73.142857 73.142858 73.142857s73.142857-32.747886 73.142857-73.142857v-731.428572c0-40.394971-32.747886-73.142857-73.142857-73.142857zM512-54.857143c-40.394971 0-73.142857 32.747886-73.142857 73.142857V749.714286c0 40.394971 32.747886 73.142857 73.142857 73.142857s73.142857-32.747886 73.142857-73.142857v-731.428572c0-40.394971-32.747886-73.142857-73.142857-73.142857zM219.428571-54.857143c-40.394971 0-73.142857 32.747886-73.142857 73.142857V749.714286c0 40.394971 32.747886 73.142857 73.142857 73.142857s73.142857-32.747886 73.142858-73.142857v-731.428572c0-40.394971-32.747886-73.142857-73.142858-73.142857z"  horiz-adv-x="1024" />

    
    <glyph glyph-name="overview" unicode="&#59254;" d="M727.04 64c0-11.782827-9.550507-21.333333-21.333333-21.333333h-384c-11.782827 0-21.333333 9.550507-21.333334 21.333333s9.550507 21.333333 21.333334 21.333333h384c11.782827 0 21.333333-9.550507 21.333333-21.333333zM896 725.333333H128c-23.563947 0-42.666667-19.10272-42.666667-42.666666v-469.333334c0-23.563947 19.10272-42.666667 42.666667-42.666666h768c23.563947 0 42.666667 19.10272 42.666667 42.666666V682.666667c0 23.563947-19.10272 42.666667-42.666667 42.666666z m0-512H128V682.666667h768v-469.333334zM341.333333 362.666667c0-11.782827-9.550507-21.333333-21.333333-21.333334s-21.333333 9.550507-21.333333 21.333334v170.666666c0 11.782827 9.550507 21.333333 21.333333 21.333334s21.333333-9.550507 21.333333-21.333334v-170.666666zM469.333333 320c0-11.782827-9.550507-21.333333-21.333333-21.333333s-21.333333 9.550507-21.333333 21.333333v256c0 11.782827 9.550507 21.333333 21.333333 21.333333s21.333333-9.550507 21.333333-21.333333v-256zM597.333333 362.666667c0-11.782827-9.550507-21.333333-21.333333-21.333334s-21.333333 9.550507-21.333333 21.333334v170.666666c0 11.782827 9.550507 21.333333 21.333333 21.333334s21.333333-9.550507 21.333333-21.333334v-170.666666zM725.333333 320c0-11.782827-9.550507-21.333333-21.333333-21.333333s-21.333333 9.550507-21.333333 21.333333v256c0 11.782827 9.550507 21.333333 21.333333 21.333333s21.333333-9.550507 21.333333-21.333333v-256z"  horiz-adv-x="1024" />

    
    <glyph glyph-name="firstpage" unicode="&#59255;" d="M460.264331 332.291759c1.815736-1.815736 3.702784-3.510788 5.652003-5.096129l46.152236-46.477716 156.952346-157.065714 230.15045-230.207136c14.282691-14.282691 32.972152-21.423122 51.690871-21.423122 18.718718 0 37.422808 7.140431 51.70367 21.423122S1023.979886-73.557184 1023.979886-54.838466s-7.144088 37.437436-21.426779 51.718299L772.417285 227.015655 615.421054 384.010057l156.994402 156.994402L1002.551278 771.140281c14.282691 14.282691 21.423122 32.99958 21.423123 51.718299s-7.140431 37.437436-21.423123 51.718298C988.268588 888.859569 969.54987 896 950.831152 896c-18.718718 0-37.437436-7.140431-51.718299-21.423122L668.903889 644.369743l-156.837147-157.065715-46.152237-46.479544a73.772265 73.772265 0 0 1-5.652003-5.096129c-28.561725-28.563553-28.561725-74.873044 0.001829-103.436596zM21.423122 332.291759c1.815736-1.815736 3.702784-3.510788 5.652003-5.096129l46.152237-46.477716 156.952345-157.065714 230.150451-230.207136c14.282691-14.282691 32.972152-21.423122 51.69087-21.423122 18.718718 0 37.422808 7.140431 51.70367 21.423122s21.415808 32.99958 21.415808 51.718299-7.144088 37.437436-21.426779 51.718298L333.576076 227.015655 176.579846 384.010057l156.994402 156.994402L563.708241 771.140281C577.990932 785.421144 585.131363 804.139862 585.131363 822.85858s-7.140431 37.437436-21.423122 51.718298C549.427379 888.859569 530.708661 896 511.989943 896c-18.718718 0-37.437436-7.140431-51.718298-21.423122L230.062681 644.369743 73.225533 487.304028l-46.152236-46.479544a73.772265 73.772265 0 0 1-5.652003-5.096129c-28.561725-28.563553-28.561725-74.873044 0.001828-103.436596z"  horiz-adv-x="1024" />

    
    <glyph glyph-name="up" unicode="&#59256;" d="M460.280686 655.151543a74.157714 74.157714 0 0 1-5.096229-5.652114l-46.478628-46.153143-157.0688-156.955429L21.423543 216.237714C7.140571 201.954743 0 183.264914 0 164.545829c0-18.719086 7.140571-37.423543 21.423543-51.704686S54.423771 91.424914 73.142857 91.424914s37.438171 7.144229 51.719314 21.4272l230.140343 230.142172L512 499.991771l156.997486-156.997485 230.140343-230.140343c14.282971-14.282971 33.000229-21.423543 51.719314-21.423543s37.438171 7.140571 51.719314 21.423543c14.282971 14.282971 21.423543 33.000229 21.423543 51.719314 0 18.719086-7.140571 37.438171-21.423543 51.719314L772.3648 446.507886l-157.0688 156.840228-46.480457 46.153143a73.773714 73.773714 0 0 1-5.096229 5.652114c-28.564114 28.562286-74.874514 28.562286-103.438628-0.001828z"  horiz-adv-x="1024" />

    
    <glyph glyph-name="track" unicode="&#59257;" d="M512 384m-73.142857 0a73.142857 73.142857 0 1 1 146.285714 0 73.142857 73.142857 0 1 1-146.285714 0ZM987.428571 420.571429h-38.100114C931.735771 633.770057 761.770057 803.735771 548.571429 821.328457V859.428571c0 20.1984-16.373029 36.571429-36.571429 36.571429s-36.571429-16.373029-36.571429-36.571429v-38.100114C262.229943 803.735771 92.264229 633.770057 74.671543 420.571429H36.571429c-20.1984 0-36.571429-16.373029-36.571429-36.571429s16.373029-36.571429 36.571429-36.571429h38.100114C92.264229 134.229943 262.229943-35.735771 475.428571-53.328457V-91.428571c0-20.1984 16.373029-36.571429 36.571429-36.571429s36.571429 16.373029 36.571429 36.571429v38.100114c213.198629 17.592686 383.164343 187.5584 400.757028 400.757028H987.428571c20.1984 0 36.571429 16.373029 36.571429 36.571429s-16.373029 36.571429-36.571429 36.571429zM770.5984 125.4016c-60.381257-60.381257-138.157714-97.045943-222.026971-105.3184V128c0 20.1984-16.373029 36.571429-36.571429 36.571429s-36.571429-16.373029-36.571429-36.571429v-107.9168c-83.871086 8.272457-161.647543 44.937143-222.026971 105.3184S156.355657 263.557486 148.0832 347.428571H256c20.1984 0 36.571429 16.373029 36.571429 36.571429s-16.373029 36.571429-36.571429 36.571429H148.0832c8.272457 83.871086 44.937143 161.647543 105.3184 222.026971C313.782857 702.979657 391.559314 739.644343 475.428571 747.9168V640c0-20.1984 16.373029-36.571429 36.571429-36.571429s36.571429 16.373029 36.571429 36.571429V747.9168c83.871086-8.272457 161.647543-44.937143 222.026971-105.3184 60.381257-60.381257 97.045943-138.157714 105.3184-222.026971H768c-20.1984 0-36.571429-16.373029-36.571429-36.571429s16.373029-36.571429 36.571429-36.571429h107.9168c-8.272457-83.871086-44.937143-161.647543-105.3184-222.026971z"  horiz-adv-x="1024" />

    
    <glyph glyph-name="settings1" unicode="&#59258;" d="M895.573333 469.333333h-53.024426a339.252907 339.252907 0 0 1-36.5568 88.15616l37.149013 37.149014c16.662187 16.662187 16.662187 43.677013 0 60.3392l-60.3392 60.3392c-8.33024 8.331947-19.2512 12.496213-30.170453 12.496213s-21.838507-4.165973-30.170454-12.496213l-37.195093-37.195094A339.29728 339.29728 0 0 1 595.626667 714.9824V767.146667c0 23.563947-18.249387 41.813333-41.813334 41.813333h-85.333333C444.916053 808.96 424.96 790.710613 424.96 767.146667v-53.031254a339.367253 339.367253 0 0 1-87.53664-36.742826l-37.34016 37.341866c-8.33024 8.331947-19.2512 12.496213-30.170453 12.496214s-21.838507-4.165973-30.170454-12.496214l-60.3392-60.3392c-16.662187-16.662187-16.662187-43.677013 0-60.3392l37.843627-37.843626a339.273387 339.273387 0 0 1-36.21376-88.564054H127.573333C104.009387 467.626667 85.333333 448.950613 85.333333 425.386667v-85.333334C85.333333 316.489387 104.009387 296.96 127.573333 296.96h54.331734a339.305813 339.305813 0 0 1 36.420266-86.98368l-38.319786-38.319787c-16.662187-16.662187-16.662187-43.677013 0-60.3392l60.3392-60.3392c8.33024-8.331947 19.2512-12.496213 30.170453-12.496213s21.838507 4.165973 30.170453 12.496213l38.586027 38.586027A339.177813 339.177813 0 0 1 426.666667 53.435733v-54.289066c0-23.563947 19.10272-43.52 42.666666-43.52h85.333334c23.563947 0 42.666667 19.956053 42.666666 43.52v54.311253a339.237547 339.237547 0 0 1 87.61856 36.23424l38.11328-38.111573c8.33024-8.331947 19.2512-12.496213 30.170454-12.496214s21.838507 4.165973 30.170453 12.496214l60.3392 60.3392c16.662187 16.662187 16.662187 43.677013 0 60.3392l-37.940907 37.940906A339.247787 339.247787 0 0 1 842.54208 298.666667h53.03296c23.563947 0 43.093333 18.676053 43.093333 42.24v85.333333C938.666667 449.803947 919.13728 469.333333 895.573333 469.333333z m-142.94016 215.81312l60.337494-60.337493-31.418027-31.418027a343.386453 343.386453 0 0 1-60.366507 60.311894l31.44704 31.443626z m-543.061333-60.941653l60.340907 60.3392 31.720106-31.720107a343.34208 343.34208 0 0 1-60.10368-60.576426l-31.957333 31.957333z m60.94336-543.05792l-60.3392 60.3392 32.65024 32.648533a343.338667 343.338667 0 0 1 60.458667-60.22144l-32.769707-32.766293z m542.789973 60.941653L753.1008 81.749333l-32.298667 32.254294a343.307947 343.307947 0 0 1 60.383574 60.148053l32.119466-32.063147zM896 341.333333h-88.379733a296.850773 296.850773 0 0 0-9.345707-42.666666h0.032427a294.847147 294.847147 0 0 0-23.729494-57.2416l-0.049493 0.049493a298.953387 298.953387 0 0 0-23.784107-36.937387l0.017067-0.017066a302.55104 302.55104 0 0 0-60.3904-60.127574l-0.022187 0.022187a299.025067 299.025067 0 0 0-36.706986-23.41376l0.05632-0.05632a294.74816 294.74816 0 0 0-56.36608-23.29088v0.07168a296.901973 296.901973 0 0 0-42.666667-9.345707V-1.706667h-85.333333v90.0864a296.901973 296.901973 0 0 0-42.666667 9.345707v-0.05632a294.946133 294.946133 0 0 0-56.142507 23.14752l0.063147 0.063147a299.098453 299.098453 0 0 0-36.860587 23.478613l-0.022186-0.022187a302.615893 302.615893 0 0 0-32.894294 28.474027 302.810453 302.810453 0 0 0-27.598506 31.709867l0.032426 0.03072a298.912427 298.912427 0 0 0-23.64416 36.696746l-0.039253-0.039253A294.73792 294.73792 0 0 0 226.17088 296.96h0.063147a296.901973 296.901973 0 0 0-9.613654 42.666667H128v85.333333h88.142507a296.915627 296.915627 0 0 0 9.076053 42.666667h-0.03072a294.905173 294.905173 0 0 0 23.335253 57.289386l0.063147-0.063146a298.92096 298.92096 0 0 0 23.41376 36.92544l-0.03584 0.03584a302.59712 302.59712 0 0 0 28.847787 33.375573 303.066453 303.066453 0 0 0 31.230293 27.224747l0.029013-0.027307a299.076267 299.076267 0 0 0 36.630187 23.709013l-0.058027 0.058027a294.84032 294.84032 0 0 0 56.318294 23.678293v-0.064853a296.901973 296.901973 0 0 0 42.666666 9.613653V766.293333h85.333334v-86.43584a296.915627 296.915627 0 0 0 42.666666-9.076053v0.063147a294.89152 294.89152 0 0 0 58.3936-23.968427l-0.0512-0.049493a298.898773 298.898773 0 0 0 36.795734-23.54688l0.018773 0.018773a302.554453 302.554453 0 0 0 60.35968-60.31872l-0.017067-0.017067a298.927787 298.927787 0 0 0 23.575894-36.763306l0.049493 0.049493a294.853973 294.853973 0 0 0 23.54688-56.917333h-0.0256a297.079467 297.079467 0 0 0 9.345707-42.666667H896V341.333333zM512 554.666667c-94.257493 0-170.666667-76.41088-170.666667-170.666667s76.409173-170.666667 170.666667-170.666667 170.666667 76.41088 170.666667 170.666667-76.409173 170.666667-170.666667 170.666667z m0-298.666667c-70.5792 0-128 57.4208-128 128s57.4208 128 128 128 128-57.4208 128-128-57.4208-128-128-128z"  horiz-adv-x="1024" />

    
    <glyph glyph-name="user" unicode="&#59259;" d="M680.96 467.626667c0-94.255787-76.41088-170.666667-170.666667-170.666667s-170.666667 76.41088-170.666666 170.666667v129.706666c0 94.255787 76.41088 170.666667 170.666666 170.666667s170.666667-76.41088 170.666667-170.666667v-129.706666zM810.666667 300.373333h-168.42752C606.208 272.55808 561.041067 256 512 256s-94.206293 16.55808-130.239147 44.373333H213.333333c-23.563947 0-42.666667-19.10272-42.666666-42.666666v-215.04c0-23.563947 19.10272-42.666667 42.666666-42.666667h597.333334c23.563947 0 42.666667 19.10272 42.666666 42.666667V257.706667c0 23.563947-19.10272 42.666667-42.666666 42.666666z"  horiz-adv-x="1024" />

    
    <glyph glyph-name="warning" unicode="&#59260;" d="M1004.672 70.1952L594.0608 780.904229c-45.1328 78.173257-118.986971 78.208-164.1216 0.034742L19.328 70.178743C-25.8048-7.994514 11.121371-71.314286 101.3888-71.314286h821.2224c90.2656 0 127.1936 63.336229 82.0608 141.509486zM512 54.656c-40.394971 0-73.142857 32.747886-73.142857 73.142857s32.747886 73.142857 73.142857 73.142857 73.142857-32.747886 73.142857-73.142857-32.747886-73.142857-73.142857-73.142857z m73.142857 292.571429c0-40.394971-32.747886-73.142857-73.142857-73.142858s-73.142857 32.747886-73.142857 73.142858v182.857142c0 40.394971 32.747886 73.142857 73.142857 73.142858s73.142857-32.747886 73.142857-73.142858v-182.857142z"  horiz-adv-x="1024" />

    
    <glyph glyph-name="wrong" unicode="&#59261;" d="M512 896C229.229714 896 0 666.770286 0 384s229.229714-512 512-512 512 229.229714 512 512S794.770286 896 512 896z m232.738743-693.019429c14.281143-14.281143 14.281143-37.438171 0-51.719314s-37.438171-14.281143-51.719314 0L512 332.280686l-181.019429-181.019429c-14.281143-14.281143-37.438171-14.281143-51.719314 0-14.282971 14.281143-14.281143 37.438171 0 51.719314L460.280686 384l-181.019429 181.019429c-14.282971 14.281143-14.281143 37.438171 0 51.719314s37.436343 14.282971 51.719314 0L512 435.719314l181.019429 181.019429c14.281143 14.282971 37.438171 14.282971 51.719314 0 14.281143-14.281143 14.281143-37.438171 0-51.719314L563.719314 384l181.019429-181.019429z"  horiz-adv-x="1024" />

    
    <glyph glyph-name="lock" unicode="&#59262;" d="M877.714286 457.142857h-73.142857v146.285714c0 161.323886-131.245714 292.571429-292.571429 292.571429-161.323886 0-292.571429-131.247543-292.571429-292.571429v-146.285714h-73.142857c-40.394971 0-73.142857-32.747886-73.142857-73.142857v-438.857143c0-40.394971 32.747886-73.142857 73.142857-73.142857h731.428572c40.394971 0 73.142857 32.747886 73.142857 73.142857v438.857143c0 40.394971-32.747886 73.142857-73.142857 73.142857z m-512 146.285714c0 80.661943 65.623771 146.285714 146.285714 146.285715s146.285714-65.623771 146.285714-146.285715v-146.285714h-292.571428v146.285714z m219.428571-512c0-40.394971-32.747886-73.142857-73.142857-73.142857s-73.142857 32.747886-73.142857 73.142857v146.285715c0 40.394971 32.747886 73.142857 73.142857 73.142857s73.142857-32.747886 73.142857-73.142857v-146.285715z"  horiz-adv-x="1024" />

    
    <glyph glyph-name="refresh" unicode="&#59251;" d="M874.038857 21.961143C970.742857 118.666971 1024 247.239314 1024 384s-53.257143 265.333029-149.961143 362.038857C777.333029 842.742857 648.760686 896 512 896S246.666971 842.742857 149.961143 746.038857C53.257143 649.333029 0 520.760686 0 384s53.257143-265.333029 149.961143-362.038857C246.666971-74.742857 375.239314-128 512-128c20.1984 0 36.571429 16.373029 36.571429 36.571429s-16.373029 36.571429-36.571429 36.571428c-117.2224 0-227.428571 45.650286-310.317714 128.539429S73.142857 266.7776 73.142857 384s45.650286 227.428571 128.539429 310.317714S394.7776 822.857143 512 822.857143s227.428571-45.650286 310.317714-128.539429S950.857143 501.2224 950.857143 384s-45.650286-227.428571-128.539429-310.317714l-112.312685 112.312685C681.559771 214.440229 658.285714 204.8 658.285714 164.571429v-219.428572c0-40.228571 32.914286-73.142857 73.142857-73.142857h219.428572c40.228571 0 49.8688 23.274057 21.423543 51.719314L874.038857 21.961143z"  horiz-adv-x="1024" />

    
    <glyph glyph-name="group" unicode="&#59263;" d="M246.00064 384.27648c48.996693 0 88.715947 39.72096 88.715947 88.715947v44.357973c0 48.996693-39.72096 88.715947-88.715947 88.715947s-88.715947-39.72096-88.715947-88.715947v-44.357973c0-48.994987 39.719253-88.715947 88.715947-88.715947zM867.017387 472.994133v44.357974c0 48.996693-39.72096 88.715947-88.715947 88.715946s-88.715947-39.72096-88.715947-88.715946v-44.357974c0-48.996693 39.72096-88.715947 88.715947-88.715946s88.715947 39.719253 88.715947 88.715946zM912.262827 383.279787h-36.55168c-17.814187-19.51744-40.03328-33.431893-66.609494-39.65952 8.861013-13.73184 13.55776-29.868373 13.55776-47.614294v-177.4336c0-0.29696 0.866987-1.440427 0.86528-1.440426h88.738134c24.497493 0 43.470507 20.41344 43.470506 44.91264V339.47648c0 24.4992-18.973013 43.803307-43.470506 43.803307zM216.54528 343.50592c-26.765653 6.173013-51.812693 20.256427-69.72928 39.773867H113.81248c-24.497493 0-45.24544-19.304107-45.24544-43.805014v-177.4336c0-24.497493 20.747947-44.91264 45.24544-44.91264h88.73984c-0.003413 0-0.909653 1.145173-0.909653 1.440427V296.004267c0 17.698133 5.789013 33.793707 14.902613 47.501653zM512.150187 340.36224c73.494187 0 133.075627 59.579733 133.075626 133.075627v88.715946c0 73.494187-59.579733 133.075627-133.075626 133.075627s-133.075627-59.579733-133.075627-133.075627v-88.715946c0.001707-73.495893 59.58144-133.075627 133.075627-133.075627zM734.829227 338.921813h-105.56928c-31.1552-28.388693-71.809707-43.470507-116.222294-43.470506-44.412587 0-85.067093 15.081813-116.222293 43.470506h-105.56928c-24.497493 0-45.24544-19.304107-45.24544-43.805013v-177.4336c0-24.497493 20.747947-44.91264 45.24544-44.91264h443.583147c24.497493 0 43.470507 20.41344 43.470506 44.91264V295.1168c0 24.4992-18.973013 43.805013-43.470506 43.805013z"  horiz-adv-x="1024" />

    
    <glyph glyph-name="check" unicode="&#59264;" d="M995.397029 591.169829L442.945371 38.718171c-38.138514-38.138514-99.975314-38.138514-138.113828 0L28.605714 314.944c-38.138514 38.138514-38.138514 99.973486 0 138.112s99.975314 38.138514 138.113829 0L373.889371 245.886171 857.285029 729.281829c38.138514 38.138514 99.975314 38.138514 138.113828 0 38.136686-38.138514 38.136686-99.973486-0.001828-138.112z"  horiz-adv-x="1024" />

    
    <glyph glyph-name="bold" unicode="&#59265;" d="M708.750629 414.961371c104.391314-22.654171 177.693257-50.102857 219.8784-82.313142 60.5696-45.813029 90.870857-105.230629 90.870857-178.218058 0-77.026743-33.258057-140.7232-99.796115-191.056457C838.030629-97.541486 719.303314-128 563.518171-128H4.500114v27.940571c50.837943 0 85.322971 4.405029 103.445943 13.215086 18.1248 8.799086 30.8352 20.264229 38.134857 34.360686 7.299657 14.085486 10.960457 48.822857 10.960457 104.212114V716.271543c0 55.378286-3.6608 90.241829-10.960457 104.590628-7.299657 14.3488-20.158171 25.790171-38.533485 34.360686-18.397257 8.557714-52.736 12.8384-103.047315 12.8384V896h527.3856c126.017829 0 215.274057-10.4576 267.735772-31.339886 52.463543-20.893257 93.838629-52.106971 124.139885-93.639314 30.290286-41.534171 45.436343-85.710629 45.436343-132.5312 0-49.347657-19.203657-93.262629-57.601828-131.776-38.418286-38.513371-106.026057-69.096229-202.845257-91.752229zM413.419886 376.448v-328.495543l-0.808229-37.758171c0-27.185371 7.425829-47.701943 22.308572-61.546057 14.871771-13.855086 36.918857-20.767086 66.128457-20.767086 43.264 0 83.1616 8.936229 119.672685 26.808686 36.509257 17.861486 64.502857 43.799771 83.9808 77.781942 19.466971 33.982171 29.200457 71.855543 29.200458 113.6512 0 47.826286-11.904 90.735543-35.691886 128.7552-23.808 38.010514-56.532114 64.566857-98.170514 79.669029-41.660343 15.104-103.857371 22.394514-186.620343 21.9008z m0 58.903771c76.805486 0 133.474743 8.043886 169.985828 24.164572 36.509257 16.109714 64.502857 38.765714 83.969829 67.964343 19.476114 29.189486 29.2096 66.453943 29.2096 111.764114s-9.607314 82.428343-28.801829 111.3856c-19.203657 28.948114-46.652343 50.973257-82.3552 66.077257-35.702857 15.104-93.041371 22.392686-172.010057 21.898972v-403.254858z"  horiz-adv-x="1024" />

    
    <glyph glyph-name="Italic" unicode="&#59266;" d="M391.928686 868.059429L400.235886 896h499.9168l-9.8176-27.940571c-45.310171 0-79.932343-10.079086-103.835429-30.206172-23.914057-20.138057-44.931657-62.186057-63.056457-126.112914L536.164571 56.259657c-13.5936-46.315886-20.388571-77.279086-20.388571-92.884114 0-18.122971 7.047314-32.219429 21.143771-42.289372 18.122971-13.088914 52.357486-20.138057 102.701715-21.143771l-7.552-27.940571H123.847314l8.3072 27.940571c50.847086 0 88.091429 9.691429 111.764115 29.074286 23.661714 19.382857 45.046857 61.7984 64.188342 127.2448L496.896 711.740343c11.578514 40.276114 17.3696 70.723657 17.3696 91.375543 0 18.616686-7.058286 33.226971-21.143771 43.799771-14.096457 10.570971-47.839086 17.620114-101.193143 21.143772z"  horiz-adv-x="1024" />

    
    <glyph glyph-name="reset" unicode="&#59267;" d="M512 896c-40.394971 0-73.142857-32.747886-73.142857-73.142857v-146.285714c0-40.394971 32.747886-73.142857 73.142857-73.142858s73.142857 32.747886 73.142857 73.142858v146.285714c0 40.394971-32.747886 73.142857-73.142857 73.142857zM512 164.571429c-40.394971 0-73.142857-32.747886-73.142857-73.142858v-146.285714c0-40.394971 32.747886-73.142857 73.142857-73.142857s73.142857 32.747886 73.142857 73.142857v146.285714c0 40.394971-32.747886 73.142857-73.142857 73.142858zM950.857143 457.142857h-146.285714c-40.394971 0-73.142857-32.747886-73.142858-73.142857s32.747886-73.142857 73.142858-73.142857h146.285714c40.394971 0 73.142857 32.747886 73.142857 73.142857s-32.747886 73.142857-73.142857 73.142857zM292.571429 384c0 40.394971-32.747886 73.142857-73.142858 73.142857h-146.285714c-40.394971 0-73.142857-32.747886-73.142857-73.142857s32.747886-73.142857 73.142857-73.142857h146.285714c40.394971 0 73.142857 32.747886 73.142858 73.142857zM770.5984 539.159771l103.440457 103.440458c28.564114 28.564114 28.564114 74.876343 0 103.440457s-74.876343 28.564114-103.440457 0l-103.440457-103.440457c-28.564114-28.564114-28.564114-74.876343 0-103.440458s74.876343-28.564114 103.440457 0zM253.4016 228.840229L149.961143 125.4016c-28.564114-28.564114-28.564114-74.876343 0-103.440457s74.876343-28.564114 103.440457 0l103.440457 103.440457c28.564114 28.564114 28.564114 74.876343 0 103.440457s-74.876343 28.562286-103.440457-0.001828zM770.5984 228.840229c-28.564114 28.564114-74.876343 28.564114-103.440457 0s-28.564114-74.876343 0-103.440458l103.440457-103.440457c28.564114-28.564114 74.876343-28.564114 103.440457 0s28.564114 74.876343 0 103.440457l-103.440457 103.440458zM253.4016 746.038857c-28.564114 28.564114-74.876343 28.564114-103.440457 0s-28.564114-74.876343 0-103.440457l103.440457-103.440457c28.564114-28.564114 74.876343-28.564114 103.440457 0s28.564114 74.876343 0 103.440457L253.4016 746.038857z"  horiz-adv-x="1024" />

    
    <glyph glyph-name="upload" unicode="&#59268;" d="M772.3648 300.222171l-157.0688 156.840229-46.480457 46.153143a73.429943 73.429943 0 0 1-5.096229 5.652114c-28.564114 28.564114-74.876343 28.564114-103.438628 0a74.157714 74.157714 0 0 1-5.096229-5.652114l-46.478628-46.153143-157.0688-156.9536-83.925943-83.869257c-14.282971-14.282971-21.423543-32.9728-21.423543-51.691886s7.140571-37.423543 21.423543-51.704686c14.282971-14.282971 33.000229-21.416229 51.719314-21.416228s37.438171 7.144229 51.719314 21.4272l83.854629 83.854628L438.857143 280.5632V-54.857143c0-40.394971 32.747886-73.142857 73.142857-73.142857s73.142857 32.747886 73.142857 73.142857V280.5632l83.854629-83.8528 83.854628-83.854629c14.282971-14.282971 33.000229-21.421714 51.719315-21.421714s37.438171 7.140571 51.719314 21.421714c14.282971 14.281143 21.423543 33.000229 21.423543 51.719315s-7.140571 37.438171-21.423543 51.719314l-83.925943 83.927771zM73.142857 530.285714c40.394971 0 73.142857 32.747886 73.142857 73.142857V749.714286h731.428572v-146.285715c0-40.394971 32.747886-73.142857 73.142857-73.142857s73.142857 32.747886 73.142857 73.142857V822.857143c0 40.394971-32.747886 73.142857-73.142857 73.142857H73.142857C32.747886 896 0 863.252114 0 822.857143v-219.428572c0-40.394971 32.747886-73.142857 73.142857-73.142857z"  horiz-adv-x="1024" />

    
    <glyph glyph-name="Invisible" unicode="&#59269;" d="M314.223543 324.498286c-13.8752 28.785371-21.652114 61.063314-21.652114 95.158857 0 121.186743 98.241829 219.428571 219.428571 219.428571 34.095543 0 66.373486-7.776914 95.158857-21.652114l120.155429 120.155429C666.203429 766.615771 594.715429 785.371429 512 785.371429 146.280229 785.371429 0 418.742857 0 418.742857s52.405029-130.660571 172.878629-235.589486l141.344914 141.344915zM850.773943 655.811657l49.144686 49.144686c14.043429 14.043429 13.851429 37.006629-0.431543 51.2896s-37.244343 14.474971-51.2896 0.431543L174.979657 83.457829c-14.043429-14.043429-13.851429-37.006629 0.431543-51.2896s37.244343-14.474971 51.2896-0.431543l69.833143 69.833143c61.147429-28.924343 132.679314-47.6288 215.466057-47.6288 365.714286 0 512 364.8 512 364.8s-52.509257 131.567543-173.226057 237.070628zM512 200.228571c-34.093714 0-66.369829 7.780571-95.153371 21.6576l88.292571 88.292572c2.271086-0.1408 4.553143-0.235886 6.8608-0.235886 60.593371 0 109.714286 49.120914 109.714286 109.714286 0 2.305829-0.095086 4.589714-0.235886 6.8608l88.292571 88.292571c13.877029-28.783543 21.6576-61.059657 21.6576-95.153371 0-121.186743-98.241829-219.428571-219.428571-219.428572zM402.285714 419.657143c0-2.305829 0.095086-4.589714 0.235886-6.8608l116.3392 116.3392a110.72 110.72 0 0 1-6.8608 0.235886c-60.593371 0-109.714286-49.120914-109.714286-109.714286z"  horiz-adv-x="1056" />

    
    <glyph glyph-name="ZN" unicode="&#59270;" d="M554.666667 512h170.666666v-170.666667h-170.666666zM298.666667 512h170.666666v-170.666667h-170.666666zM512 853.333333c-259.20512 0-469.333333-210.128213-469.333333-469.333333s210.128213-469.333333 469.333333-469.333333 469.333333 210.128213 469.333333 469.333333-210.128213 469.333333-469.333333 469.333333z m298.666667-537.6c0-32.93696-26.796373-59.733333-59.733334-59.733333h-196.266666v-170.666667c0-23.563947-19.10272-42.666667-42.666667-42.666666s-42.666667 19.10272-42.666667 42.666666v170.666667h-196.266666c-32.93696 0-59.733333 26.796373-59.733334 59.733333v221.866667c0 32.93696 26.796373 59.733333 59.733334 59.733333h196.266666v85.333334c0 23.563947 19.10272 42.666667 42.666667 42.666666s42.666667-19.10272 42.666667-42.666666v-85.333334h196.266666c32.93696 0 59.733333-26.796373 59.733334-59.733333v-221.866667z"  horiz-adv-x="1024" />

    
    <glyph glyph-name="EN" unicode="&#59271;" d="M512 853.333333c-259.20512 0-469.333333-210.128213-469.333333-469.333333s210.128213-469.333333 469.333333-469.333333 469.333333 210.128213 469.333333 469.333333-210.128213 469.333333-469.333333 469.333333z m-9.076053-660.077226H213.333333V574.743893h285.313707v-70.526293H297.219413v-81.75104h184.866134v-65.186133h-184.866134v-93.498027h205.704534v-70.526293z m307.74272 0h-75.859627v156.01664c0 22.790827-3.565227 39.799467-10.69568 51.024213-7.1168 11.21792-19.754667 16.826027-37.930667 16.826027-20.65408 0-35.62496-6.145707-44.87168-18.435414-9.275733-12.28288-13.899093-32.50176-13.899093-60.64128v-144.791893H551.543467V469.48352h72.127146v-38.46656h1.609387c9.608533 16.03072 22.074027 27.690667 37.393067 34.9952 15.320747 7.297707 30.987947 10.9568 47.01696 10.9568 20.30592 0 36.959573-2.768213 49.959253-8.282453 13.001387-5.5296 23.248213-13.182293 30.726827-22.980267 7.478613-9.797973 12.724907-21.725867 15.75424-35.792213 3.029333-14.08 4.53632-29.653333 4.53632-46.749014v-169.908906z"  horiz-adv-x="1024" />

    
    <glyph glyph-name="xiaochenxu" unicode="&#59272;" d="M512 896C229.229714 896 0 666.770286 0 384s229.229714-512 512-512 512 229.229714 512 512S794.770286 896 512 896z m286.229943-413.533257c-3.893029-34.934857-17.925486-65.709714-41.3952-92.247772-23.722057-26.823314-52.7232-43.207314-88.579657-46.036114-20.021029-1.579886-34.870857 7.848229-41.387886 23.941486-5.147429 12.712229-3.576686 24.7936 5.586286 34.283886 8.7936 9.109943 19.265829 16.720457 29.546057 24.245028 12.152686 8.894171 26.020571 15.723886 37.147428 25.682286 26.762971 23.9488 24.976457 49.389714 8.9856 77.204114-12.352 21.482057-32.693029 31.687314-56.943542 32.585143-13.257143 0.488229-27.024457-0.257829-39.861029-3.357257-36.202057-8.740571-54.926629-33.120914-55.343543-70.520686-0.385829-34.574629 0.1024-183.7696-2.133943-223.689143-1.5232-27.192686-13.125486-51.386514-30.026971-72.552228-34.805029-43.582171-79.690971-69.136457-136.049372-70.365257-68.931657-1.503086-132.004571 44.9024-153.654857 110.414628-8.177371 24.744229-11.944229 49.9456-10.633143 75.850972 1.216 24.067657 12.853029 43.642514 28.957258 60.534857 25.1136 26.338743 55.632457 44.743314 89.905371 56.305371 29.343086 9.898057 54.229943-6.3104 58.859886-36.9536 1.795657-11.8912-2.746514-21.710629-12.547657-28.085028-9.034971-5.877029-19.141486-10.079086-28.587886-15.354515-9.201371-5.138286-18.856229-9.819429-27.108572-16.245028-27.093943-21.098057-31.873829-51.9424-13.776457-83.4816 19.245714-33.539657 54.414629-45.981257 94.816915-33.543315 39.530057 12.169143 56.661943 35.1872 56.764342 77.0432 0.162743 66.018743-0.266971 132.041143 0.2432 198.056229 0.287086 37.052343 8.488229 72.128 32.506515 101.659429 25.418971 31.2576 59.210971 49.462857 98.088228 56.799085 51.754057 9.7664 100.101486-0.513829 142.8864-31.925028 44.063086-32.354743 59.638857-77.279086 53.736229-130.249143z"  horiz-adv-x="1024" />

    


  </font>
</defs>
</svg>
